<svg xmlns="http://www.w3.org/2000/svg" width="349" height="427" viewBox="0 0 349 427" fill="none">
  <path d="M82.0442 11.9213C61.082 20.3204 45.6728 41.7246 35.2611 76.2694C28.5976 99.5701 21.9341 143.462 13.3271 208.759C4.72006 274.055 0 318.895 0 342.196C0 380.399 9.57886 403.835 28.7364 413.047C46.9221 422.394 87.0418 427 147.291 427C207.54 427 245.716 422.394 266.817 413.995C286.946 405.596 302.217 384.192 312.767 349.647C319.431 326.346 328.038 283.402 336.645 219.054C345.252 154.706 349 109.866 349 83.8556C349 45.6532 339.421 22.217 321.235 13.0051C303.05 4.60595 262.93 0 202.681 0C142.432 0 103.284 3.79314 82.183 12.0568L82.0442 11.9213Z" fill="#19D3C5"/>
</svg>